<svg xmlns="http://www.w3.org/2000/svg" width="1440" height="900"><path d="M766,453L773,439L637,414Z" fill="#49b6e7" stroke="#49b6e7" stroke-width="1.51"/><path d="M637,414L634,501L766,453Z" fill="#48b5e7" stroke="#48b5e7" stroke-width="1.51"/><path d="M773,439L651,297L637,414Z" fill="#42b1e7" stroke="#42b1e7" stroke-width="1.51"/><path d="M651,297L584,369L637,414Z" fill="#3aade6" stroke="#3aade6" stroke-width="1.51"/><path d="M637,414L568,470L634,501Z" fill="#44b2e7" stroke="#44b2e7" stroke-width="1.51"/><path d="M584,369L568,470L637,414Z" fill="#3fb0e6" stroke="#3fb0e6" stroke-width="1.51"/><path d="M773,439L787,274L651,297Z" fill="#40b0e7" stroke="#40b0e7" stroke-width="1.51"/><path d="M766,453L863,412L773,439Z" fill="#4db8e7" stroke="#4db8e7" stroke-width="1.51"/><path d="M863,412L787,274L773,439Z" fill="#49b5e7" stroke="#49b5e7" stroke-width="1.51"/><path d="M437,374L442,461L568,470Z" fill="#38ace6" stroke="#38ace6" stroke-width="1.51"/><path d="M651,297L579,303L584,369Z" fill="#34abe6" stroke="#34abe6" stroke-width="1.51"/><path d="M563,174L579,303L651,297Z" fill="#2aa7e6" stroke="#2aa7e6" stroke-width="1.51"/><path d="M787,274L704,230L651,297Z" fill="#36ace6" stroke="#36ace6" stroke-width="1.51"/><path d="M787,274L779,244L704,230Z" fill="#37ace6" stroke="#37ace6" stroke-width="1.51"/><path d="M863,266L779,244L787,274Z" fill="#3dafe6" stroke="#3dafe6" stroke-width="1.51"/><path d="M634,501L811,586L766,453Z" fill="#51bae7" stroke="#51bae7" stroke-width="1.51"/><path d="M766,453L909,474L863,412Z" fill="#51bbe7" stroke="#51bbe7" stroke-width="1.51"/><path d="M619,598L811,586L634,501Z" fill="#52bbe7" stroke="#52bbe7" stroke-width="1.51"/><path d="M535,561L619,598L634,501Z" fill="#4cb7e7" stroke="#4cb7e7" stroke-width="1.51"/><path d="M873,569L909,474L766,453Z" fill="#55bee7" stroke="#55bee7" stroke-width="1.51"/><path d="M863,412L863,266L787,274Z" fill="#45b3e7" stroke="#45b3e7" stroke-width="1.51"/><path d="M931,359L863,266L863,412Z" fill="#4bb7e7" stroke="#4bb7e7" stroke-width="1.51"/><path d="M568,470L535,561L634,501Z" fill="#47b4e7" stroke="#47b4e7" stroke-width="1.51"/><path d="M442,461L535,561L568,470Z" fill="#41b1e7" stroke="#41b1e7" stroke-width="1.51"/><path d="M811,586L873,569L766,453Z" fill="#57bee7" stroke="#57bee7" stroke-width="1.51"/><path d="M909,474L931,359L863,412Z" fill="#52bbe7" stroke="#52bbe7" stroke-width="1.51"/><path d="M779,244L738,84L704,230Z" fill="#37b0e6" stroke="#37b0e6" stroke-width="1.51"/><path d="M863,266L853,209L779,244Z" fill="#3eb0e6" stroke="#3eb0e6" stroke-width="1.51"/><path d="M932,251L853,209L863,266Z" fill="#41b1e6" stroke="#41b1e6" stroke-width="1.51"/><path d="M873,569L931,540L909,474Z" fill="#5bc1e8" stroke="#5bc1e8" stroke-width="1.51"/><path d="M909,474L1040,357L931,359Z" fill="#53bce7" stroke="#53bce7" stroke-width="1.51"/><path d="M579,303L482,269L584,369Z" fill="#2ea8e6" stroke="#2ea8e6" stroke-width="1.51"/><path d="M563,174L482,269L579,303Z" fill="#22a4e6" stroke="#22a4e6" stroke-width="1.51"/><path d="M437,374L568,470L584,369Z" fill="#38ace6" stroke="#38ace6" stroke-width="1.51"/><path d="M482,269L437,374L584,369Z" fill="#2ca8e6" stroke="#2ca8e6" stroke-width="1.51"/><path d="M931,359L932,251L863,266Z" fill="#47b4e7" stroke="#47b4e7" stroke-width="1.51"/><path d="M978,224L932,251L1040,357Z" fill="#4ab6e7" stroke="#4ab6e7" stroke-width="1.51"/><path d="M619,598L688,697L811,586Z" fill="#58bfe8" stroke="#58bfe8" stroke-width="1.51"/><path d="M811,586L949,627L873,569Z" fill="#5ec4e8" stroke="#5ec4e8" stroke-width="1.51"/><path d="M535,561L569,658L619,598Z" fill="#4fb9e7" stroke="#4fb9e7" stroke-width="1.51"/><path d="M506,695L569,658L443,649Z" fill="#54bae8" stroke="#54bae8" stroke-width="1.51"/><path d="M704,230L563,174L651,297Z" fill="#2da9e6" stroke="#2da9e6" stroke-width="1.51"/><path d="M601,104L563,174L704,230Z" fill="#2dade6" stroke="#2dade6" stroke-width="1.51"/><path d="M569,658L688,697L619,598Z" fill="#56bee7" stroke="#56bee7" stroke-width="1.51"/><path d="M873,569L949,627L931,540Z" fill="#5fc5e8" stroke="#5fc5e8" stroke-width="1.51"/><path d="M1040,357L932,251L931,359Z" fill="#4db8e7" stroke="#4db8e7" stroke-width="1.51"/><path d="M838,752L949,627L811,586Z" fill="#63c7e8" stroke="#63c7e8" stroke-width="1.51"/><path d="M450,150L402,242L482,269Z" fill="#14a3e5" stroke="#14a3e5" stroke-width="1.51"/><path d="M620,91L601,104L704,230Z" fill="#30b0e5" stroke="#30b0e5" stroke-width="1.51"/><path d="M688,697L762,740L811,586Z" fill="#63c4e8" stroke="#63c4e8" stroke-width="1.51"/><path d="M636,800L762,740L688,697Z" fill="#72c6ea" stroke="#72c6ea" stroke-width="1.51"/><path d="M932,251L921,129L853,209Z" fill="#43b5e7" stroke="#43b5e7" stroke-width="1.51"/><path d="M853,209L738,84L779,244Z" fill="#3bb2e6" stroke="#3bb2e6" stroke-width="1.51"/><path d="M1040,357L909,474L1084,463Z" fill="#59c0e8" stroke="#59c0e8" stroke-width="1.51"/><path d="M921,129L738,84L853,209Z" fill="#3fb7e6" stroke="#3fb7e6" stroke-width="1.51"/><path d="M738,84L620,91L704,230Z" fill="#34b2e5" stroke="#34b2e5" stroke-width="1.51"/><path d="M1084,463L909,474L931,540Z" fill="#5bc2e8" stroke="#5bc2e8" stroke-width="1.51"/><path d="M569,658L585,753L688,697Z" fill="#63c0e9" stroke="#63c0e9" stroke-width="1.51"/><path d="M443,649L569,658L535,561Z" fill="#4db8e7" stroke="#4db8e7" stroke-width="1.51"/><path d="M482,269L366,284L437,374Z" fill="#1fa4e6" stroke="#1fa4e6" stroke-width="1.51"/><path d="M324,388L346,495L442,461Z" fill="#35ade6" stroke="#35ade6" stroke-width="1.51"/><path d="M450,150L482,269L563,174Z" fill="#1fa7e5" stroke="#1fa7e5" stroke-width="1.51"/><path d="M369,593L443,649L535,561Z" fill="#47b4e7" stroke="#47b4e7" stroke-width="1.51"/><path d="M369,593L535,561L442,461Z" fill="#41b1e6" stroke="#41b1e6" stroke-width="1.51"/><path d="M978,224L921,129L932,251Z" fill="#46b6e7" stroke="#46b6e7" stroke-width="1.51"/><path d="M601,104L498,124L563,174Z" fill="#27ade5" stroke="#27ade5" stroke-width="1.51"/><path d="M596,33L498,124L601,104Z" fill="#2ab1e5" stroke="#2ab1e5" stroke-width="1.51"/><path d="M506,695L585,753L569,658Z" fill="#61bee9" stroke="#61bee9" stroke-width="1.51"/><path d="M636,800L585,753L598,904Z" fill="#7fc8ec" stroke="#7fc8ec" stroke-width="1.51"/><path d="M762,740L838,752L811,586Z" fill="#69c7e9" stroke="#69c7e9" stroke-width="1.51"/><path d="M814,840L838,752L762,740Z" fill="#7dcceb" stroke="#7dcceb" stroke-width="1.51"/><path d="M402,242L366,284L482,269Z" fill="#12a1e5" stroke="#12a1e5" stroke-width="1.51"/><path d="M288,246L366,284L402,242Z" fill="#12a3e5" stroke="#12a3e5" stroke-width="1.51"/><path d="M498,124L450,150L563,174Z" fill="#21aae5" stroke="#21aae5" stroke-width="1.51"/><path d="M324,388L442,461L437,374Z" fill="#2fa9e6" stroke="#2fa9e6" stroke-width="1.51"/><path d="M949,627L1056,593L931,540Z" fill="#63c8e8" stroke="#63c8e8" stroke-width="1.51"/><path d="M838,752L996,653L949,627Z" fill="#6bcbe9" stroke="#6bcbe9" stroke-width="1.51"/><path d="M1056,593L1084,463L931,540Z" fill="#61c6e8" stroke="#61c6e8" stroke-width="1.51"/><path d="M346,495L369,593L442,461Z" fill="#3db0e6" stroke="#3db0e6" stroke-width="1.51"/><path d="M366,284L324,388L437,374Z" fill="#26a7e6" stroke="#26a7e6" stroke-width="1.51"/><path d="M585,753L636,800L688,697Z" fill="#70c4ea" stroke="#70c4ea" stroke-width="1.51"/><path d="M437,773L585,753L506,695Z" fill="#68bfea" stroke="#68bfea" stroke-width="1.51"/><path d="M437,773L506,695L443,649Z" fill="#5cbbe8" stroke="#5cbbe8" stroke-width="1.51"/><path d="M996,653L1056,593L949,627Z" fill="#66cae8" stroke="#66cae8" stroke-width="1.51"/><path d="M620,91L596,33L601,104Z" fill="#2eb3e5" stroke="#2eb3e5" stroke-width="1.51"/><path d="M738,84L694,22L620,91Z" fill="#35b6e5" stroke="#35b6e5" stroke-width="1.51"/><path d="M775,14L694,22L738,84Z" fill="#39bae6" stroke="#39bae6" stroke-width="1.51"/><path d="M694,22L596,33L620,91Z" fill="#31b6e5" stroke="#31b6e5" stroke-width="1.51"/><path d="M498,124L374,106L450,150Z" fill="#18a9e5" stroke="#18a9e5" stroke-width="1.51"/><path d="M1040,357L1100,320L978,224Z" fill="#52bae7" stroke="#52bae7" stroke-width="1.51"/><path d="M978,224L1038,124L921,129Z" fill="#48bbe7" stroke="#48bbe7" stroke-width="1.51"/><path d="M1084,463L1100,320L1040,357Z" fill="#5fbfe8" stroke="#5fbfe8" stroke-width="1.51"/><path d="M855,3L775,14L738,84Z" fill="#3ebde5" stroke="#3ebde5" stroke-width="1.51"/><path d="M369,593L387,679L443,649Z" fill="#49b7e7" stroke="#49b7e7" stroke-width="1.51"/><path d="M267,616L387,679L369,593Z" fill="#49b8e7" stroke="#49b8e7" stroke-width="1.51"/><path d="M996,653L1051,666L1056,593Z" fill="#6acce8" stroke="#6acce8" stroke-width="1.51"/><path d="M1268,495L1180,351L1084,463Z" fill="#74c7eb" stroke="#74c7eb" stroke-width="1.51"/><path d="M997,817L1051,666L996,653Z" fill="#77d0ea" stroke="#77d0ea" stroke-width="1.51"/><path d="M324,388L281,412L346,495Z" fill="#34aee6" stroke="#34aee6" stroke-width="1.51"/><path d="M346,495L267,616L369,593Z" fill="#43b5e6" stroke="#43b5e6" stroke-width="1.51"/><path d="M188,334L281,412L324,388Z" fill="#2daee5" stroke="#2daee5" stroke-width="1.51"/><path d="M288,246L324,388L366,284Z" fill="#20a7e6" stroke="#20a7e6" stroke-width="1.51"/><path d="M1100,320L1071,188L978,224Z" fill="#50b8e7" stroke="#50b8e7" stroke-width="1.51"/><path d="M921,129L855,3L738,84Z" fill="#40bce6" stroke="#40bce6" stroke-width="1.51"/><path d="M988,73L855,3L921,129Z" fill="#46bfe6" stroke="#46bfe6" stroke-width="1.51"/><path d="M775,14L708,-59L694,22Z" fill="#39bde5" stroke="#39bde5" stroke-width="1.51"/><path d="M694,22L708,-59L596,33Z" fill="#34bae5" stroke="#34bae5" stroke-width="1.51"/><path d="M636,800L814,840L762,740Z" fill="#7ecbec" stroke="#7ecbec" stroke-width="1.51"/><path d="M838,752L914,825L996,653Z" fill="#7aceeb" stroke="#7aceeb" stroke-width="1.51"/><path d="M1071,188L1038,124L978,224Z" fill="#4cbce7" stroke="#4cbce7" stroke-width="1.51"/><path d="M1038,124L988,73L921,129Z" fill="#49bee6" stroke="#49bee6" stroke-width="1.51"/><path d="M387,679L437,773L443,649Z" fill="#59b9e8" stroke="#59b9e8" stroke-width="1.51"/><path d="M693,919L804,889L814,840Z" fill="#92d2ee" stroke="#92d2ee" stroke-width="1.51"/><path d="M374,106L288,246L402,242Z" fill="#13a6e5" stroke="#13a6e5" stroke-width="1.51"/><path d="M374,106L402,242L450,150Z" fill="#12a6e5" stroke="#12a6e5" stroke-width="1.51"/><path d="M421,-42L374,106L498,124Z" fill="#19ade5" stroke="#19ade5" stroke-width="1.51"/><path d="M1180,351L1100,320L1084,463Z" fill="#67c1e9" stroke="#67c1e9" stroke-width="1.51"/><path d="M1186,280L1129,246L1100,320Z" fill="#63bde9" stroke="#63bde9" stroke-width="1.51"/><path d="M1100,320L1129,246L1071,188Z" fill="#5ab9e8" stroke="#5ab9e8" stroke-width="1.51"/><path d="M1150,-16L1048,-25L1038,124Z" fill="#58c8e7" stroke="#58c8e7" stroke-width="1.51"/><path d="M814,840L914,825L838,752Z" fill="#85d0ec" stroke="#85d0ec" stroke-width="1.51"/><path d="M281,412L249,497L346,495Z" fill="#38b1e6" stroke="#38b1e6" stroke-width="1.51"/><path d="M274,816L401,840L437,773Z" fill="#75c2eb" stroke="#75c2eb" stroke-width="1.51"/><path d="M144,418L249,497L281,412Z" fill="#36b4e5" stroke="#36b4e5" stroke-width="1.51"/><path d="M752,-136L708,-59L775,14Z" fill="#3bc2e5" stroke="#3bc2e5" stroke-width="1.51"/><path d="M596,33L421,-42L498,124Z" fill="#24b1e5" stroke="#24b1e5" stroke-width="1.51"/><path d="M1167,548L1084,463L1056,593Z" fill="#6ecae9" stroke="#6ecae9" stroke-width="1.51"/><path d="M1150,602L1167,548L1056,593Z" fill="#75cdea" stroke="#75cdea" stroke-width="1.51"/><path d="M1150,602L1056,593L1051,666Z" fill="#71cde9" stroke="#71cde9" stroke-width="1.51"/><path d="M1208,683L1150,602L1051,666Z" fill="#7bd2ea" stroke="#7bd2ea" stroke-width="1.51"/><path d="M249,497L267,616L346,495Z" fill="#40b6e6" stroke="#40b6e6" stroke-width="1.51"/><path d="M814,840L804,889L914,825Z" fill="#8ed2ed" stroke="#8ed2ed" stroke-width="1.51"/><path d="M693,919L814,840L636,800Z" fill="#8aceee" stroke="#8aceee" stroke-width="1.51"/><path d="M914,825L997,817L996,653Z" fill="#81d2ec" stroke="#81d2ec" stroke-width="1.51"/><path d="M1022,839L997,817L980,935Z" fill="#97d9ee" stroke="#97d9ee" stroke-width="1.51"/><path d="M1180,351L1186,280L1100,320Z" fill="#69bfea" stroke="#69bfea" stroke-width="1.51"/><path d="M1186,97L1038,124L1071,188Z" fill="#5bc1e8" stroke="#5bc1e8" stroke-width="1.51"/><path d="M1239,297L1186,280L1180,351Z" fill="#70c1eb" stroke="#70c1eb" stroke-width="1.51"/><path d="M447,859L598,904L585,753Z" fill="#80c6ed" stroke="#80c6ed" stroke-width="1.51"/><path d="M598,904L693,919L636,800Z" fill="#8cccee" stroke="#8cccee" stroke-width="1.51"/><path d="M288,246L188,334L324,388Z" fill="#24abe5" stroke="#24abe5" stroke-width="1.51"/><path d="M190,197L226,251L288,246Z" fill="#14a9e5" stroke="#14a9e5" stroke-width="1.51"/><path d="M437,773L447,859L585,753Z" fill="#74c1eb" stroke="#74c1eb" stroke-width="1.51"/><path d="M401,840L447,859L437,773Z" fill="#78c1ec" stroke="#78c1ec" stroke-width="1.51"/><path d="M859,-134L752,-136L775,14Z" fill="#3fc5e5" stroke="#3fc5e5" stroke-width="1.51"/><path d="M988,73L1001,-14L855,3Z" fill="#48c3e6" stroke="#48c3e6" stroke-width="1.51"/><path d="M1048,-25L1001,-14L988,73Z" fill="#4cc7e6" stroke="#4cc7e6" stroke-width="1.51"/><path d="M1048,-25L988,73L1038,124Z" fill="#4dc3e6" stroke="#4dc3e6" stroke-width="1.51"/><path d="M274,816L437,773L387,679Z" fill="#68bfea" stroke="#68bfea" stroke-width="1.51"/><path d="M1001,-14L930,-60L855,3Z" fill="#47c6e5" stroke="#47c6e5" stroke-width="1.51"/><path d="M226,251L188,334L288,246Z" fill="#1baae5" stroke="#1baae5" stroke-width="1.51"/><path d="M249,497L215,625L267,616Z" fill="#45bae6" stroke="#45bae6" stroke-width="1.51"/><path d="M997,817L1164,753L1051,666Z" fill="#86d5ec" stroke="#86d5ec" stroke-width="1.51"/><path d="M980,935L997,817L914,825Z" fill="#95d8ee" stroke="#95d8ee" stroke-width="1.51"/><path d="M900,951L914,825L804,889Z" fill="#97d6ef" stroke="#97d6ef" stroke-width="1.51"/><path d="M267,616L224,717L387,679Z" fill="#51bde7" stroke="#51bde7" stroke-width="1.51"/><path d="M141,491L215,625L249,497Z" fill="#41bae6" stroke="#41bae6" stroke-width="1.51"/><path d="M503,-121L421,-42L596,33Z" fill="#26b7e5" stroke="#26b7e5" stroke-width="1.51"/><path d="M242,91L190,197L288,246Z" fill="#17ade5" stroke="#17ade5" stroke-width="1.51"/><path d="M1186,97L1071,188L1129,246Z" fill="#60c0e9" stroke="#60c0e9" stroke-width="1.51"/><path d="M1292,402L1239,297L1180,351Z" fill="#78c5eb" stroke="#78c5eb" stroke-width="1.51"/><path d="M708,-59L555,-128L596,33Z" fill="#31bce5" stroke="#31bce5" stroke-width="1.51"/><path d="M859,-134L775,14L855,3Z" fill="#40c3e5" stroke="#40c3e5" stroke-width="1.51"/><path d="M930,-60L859,-134L855,3Z" fill="#44c7e5" stroke="#44c7e5" stroke-width="1.51"/><path d="M1001,-14L1075,-105L930,-60Z" fill="#4bcbe5" stroke="#4bcbe5" stroke-width="1.51"/><path d="M1186,97L1129,246L1186,280Z" fill="#66bfea" stroke="#66bfea" stroke-width="1.51"/><path d="M226,251L190,197L188,334Z" fill="#18aae5" stroke="#18aae5" stroke-width="1.51"/><path d="M242,91L288,246L374,106Z" fill="#16ace5" stroke="#16ace5" stroke-width="1.51"/><path d="M188,334L144,418L281,412Z" fill="#30b1e5" stroke="#30b1e5" stroke-width="1.51"/><path d="M72,419L144,418L61,289Z" fill="#2fb6e5" stroke="#2fb6e5" stroke-width="1.51"/><path d="M693,919L770,975L804,889Z" fill="#9ad4f0" stroke="#9ad4f0" stroke-width="1.51"/><path d="M670,1007L770,975L693,919Z" fill="#a0d4f1" stroke="#a0d4f1" stroke-width="1.51"/><path d="M670,1007L693,919L598,904Z" fill="#99d1f0" stroke="#99d1f0" stroke-width="1.51"/><path d="M752,-136L555,-128L708,-59Z" fill="#36c2e4" stroke="#36c2e4" stroke-width="1.51"/><path d="M1167,548L1268,495L1084,463Z" fill="#77caeb" stroke="#77caeb" stroke-width="1.51"/><path d="M1309,635L1268,495L1167,548Z" fill="#86d1ec" stroke="#86d1ec" stroke-width="1.51"/><path d="M1309,635L1167,548L1150,602Z" fill="#82d1ec" stroke="#82d1ec" stroke-width="1.51"/><path d="M255,-12L242,91L374,106Z" fill="#19b3e5" stroke="#19b3e5" stroke-width="1.51"/><path d="M1164,753L1208,683L1051,666Z" fill="#87d5ec" stroke="#87d5ec" stroke-width="1.51"/><path d="M1022,839L1164,753L997,817Z" fill="#90d8ed" stroke="#90d8ed" stroke-width="1.51"/><path d="M1075,-105L859,-134L930,-60Z" fill="#49cce6" stroke="#49cce6" stroke-width="1.51"/><path d="M1022,839L1077,896L1164,753Z" fill="#9adbef" stroke="#9adbef" stroke-width="1.51"/><path d="M876,999L900,951L804,889Z" fill="#a2d9f0" stroke="#a2d9f0" stroke-width="1.51"/><path d="M215,625L224,717L267,616Z" fill="#4cbfe6" stroke="#4cbfe6" stroke-width="1.51"/><path d="M171,754L224,717L165,749Z" fill="#66c6e9" stroke="#66c6e9" stroke-width="1.51"/><path d="M144,418L141,491L249,497Z" fill="#39b7e5" stroke="#39b7e5" stroke-width="1.51"/><path d="M421,-42L333,-42L374,106Z" fill="#19b2e4" stroke="#19b2e4" stroke-width="1.51"/><path d="M555,-128L503,-121L596,33Z" fill="#2abbe5" stroke="#2abbe5" stroke-width="1.51"/><path d="M503,-121L414,-78L421,-42Z" fill="#1fb7e4" stroke="#1fb7e4" stroke-width="1.51"/><path d="M1296,186L1186,97L1186,280Z" fill="#6fc3eb" stroke="#6fc3eb" stroke-width="1.51"/><path d="M1239,297L1296,186L1186,280Z" fill="#72bfeb" stroke="#72bfeb" stroke-width="1.51"/><path d="M1268,495L1292,402L1180,351Z" fill="#7dc9ec" stroke="#7dc9ec" stroke-width="1.51"/><path d="M900,951L980,935L914,825Z" fill="#9cd9ef" stroke="#9cd9ef" stroke-width="1.51"/><path d="M224,717L274,816L387,679Z" fill="#64c1e9" stroke="#64c1e9" stroke-width="1.51"/><path d="M401,840L345,911L447,859Z" fill="#82c4ed" stroke="#82c4ed" stroke-width="1.51"/><path d="M611,1054L670,1007L598,904Z" fill="#a1d2f1" stroke="#a1d2f1" stroke-width="1.51"/><path d="M255,-12L333,-42L286,-91Z" fill="#1bbae4" stroke="#1bbae4" stroke-width="1.51"/><path d="M414,-78L333,-42L421,-42Z" fill="#1ab6e4" stroke="#1ab6e4" stroke-width="1.51"/><path d="M428,990L598,904L447,859Z" fill="#8fc9ee" stroke="#8fc9ee" stroke-width="1.51"/><path d="M770,975L876,999L804,889Z" fill="#a2d8f0" stroke="#a2d8f0" stroke-width="1.51"/><path d="M900,951L952,1003L980,935Z" fill="#a8ddf1" stroke="#a8ddf1" stroke-width="1.51"/><path d="M980,935L1077,896L1022,839Z" fill="#9ddcef" stroke="#9ddcef" stroke-width="1.51"/><path d="M1293,730L1309,635L1208,683Z" fill="#94daee" stroke="#94daee" stroke-width="1.51"/><path d="M854,1113L876,999L770,975Z" fill="#b0ddf3" stroke="#b0ddf3" stroke-width="1.51"/><path d="M980,935L1078,997L1077,896Z" fill="#a9e0f1" stroke="#a9e0f1" stroke-width="1.51"/><path d="M274,816L345,911L401,840Z" fill="#7fc6ed" stroke="#7fc6ed" stroke-width="1.51"/><path d="M1186,97L1150,-16L1038,124Z" fill="#60c7e8" stroke="#60c7e8" stroke-width="1.51"/><path d="M1048,-25L1075,-105L1001,-14Z" fill="#51cce6" stroke="#51cce6" stroke-width="1.51"/><path d="M1271,50L1150,-16L1186,97Z" fill="#6eccea" stroke="#6eccea" stroke-width="1.51"/><path d="M242,91L129,114L190,197Z" fill="#19b2e4" stroke="#19b2e4" stroke-width="1.51"/><path d="M333,-42L255,-12L374,106Z" fill="#1ab4e5" stroke="#1ab4e5" stroke-width="1.51"/><path d="M286,-91L333,-42L414,-78Z" fill="#1bb9e4" stroke="#1bb9e4" stroke-width="1.51"/><path d="M1358,236L1296,186L1239,297Z" fill="#7ac2ec" stroke="#7ac2ec" stroke-width="1.51"/><path d="M274,816L267,915L345,911Z" fill="#85c9ed" stroke="#85c9ed" stroke-width="1.51"/><path d="M224,717L171,754L274,816Z" fill="#6bc6e9" stroke="#6bc6e9" stroke-width="1.51"/><path d="M165,749L224,717L215,625Z" fill="#59c3e8" stroke="#59c3e8" stroke-width="1.51"/><path d="M69,604L165,749L215,625Z" fill="#4fc3e6" stroke="#4fc3e6" stroke-width="1.51"/><path d="M144,418L72,419L141,491Z" fill="#37b8e6" stroke="#37b8e6" stroke-width="1.51"/><path d="M61,289L144,418L188,334Z" fill="#2ab3e5" stroke="#2ab3e5" stroke-width="1.51"/><path d="M61,289L188,334L190,197Z" fill="#1daee5" stroke="#1daee5" stroke-width="1.51"/><path d="M1150,-16L1075,-105L1048,-25Z" fill="#5bcee7" stroke="#5bcee7" stroke-width="1.51"/><path d="M181,907L267,915L274,816Z" fill="#85cced" stroke="#85cced" stroke-width="1.51"/><path d="M69,604L215,625L141,491Z" fill="#45bee6" stroke="#45bee6" stroke-width="1.51"/><path d="M876,999L952,1003L900,951Z" fill="#aaddf2" stroke="#aaddf2" stroke-width="1.51"/><path d="M854,1113L952,1003L876,999Z" fill="#b4e0f3" stroke="#b4e0f3" stroke-width="1.51"/><path d="M345,911L428,990L447,859Z" fill="#8cc7ee" stroke="#8cc7ee" stroke-width="1.51"/><path d="M320,1011L428,990L345,911Z" fill="#96ccf0" stroke="#96ccf0" stroke-width="1.51"/><path d="M1293,730L1208,683L1164,753Z" fill="#96daee" stroke="#96daee" stroke-width="1.51"/><path d="M1208,683L1309,635L1150,602Z" fill="#87d5ec" stroke="#87d5ec" stroke-width="1.51"/><path d="M1383,357L1351,329L1292,402Z" fill="#87c9ed" stroke="#87c9ed" stroke-width="1.51"/><path d="M1292,402L1351,329L1239,297Z" fill="#80c6ec" stroke="#80c6ec" stroke-width="1.51"/><path d="M670,1007L723,1062L770,975Z" fill="#a9d8f2" stroke="#a9d8f2" stroke-width="1.51"/><path d="M611,1054L700,1057L670,1007Z" fill="#acd7f2" stroke="#acd7f2" stroke-width="1.51"/><path d="M428,990L611,1054L598,904Z" fill="#9dcff1" stroke="#9dcff1" stroke-width="1.51"/><path d="M611,1123L723,1062L700,1057Z" fill="#afd8f3" stroke="#afd8f3" stroke-width="1.51"/><path d="M700,1057L723,1062L670,1007Z" fill="#aed9f3" stroke="#aed9f3" stroke-width="1.51"/><path d="M1130,961L1182,858L1077,896Z" fill="#ade1f2" stroke="#ade1f2" stroke-width="1.51"/><path d="M1077,896L1182,858L1164,753Z" fill="#a2def0" stroke="#a2def0" stroke-width="1.51"/><path d="M1383,357L1292,402L1446,456Z" fill="#8ecdee" stroke="#8ecdee" stroke-width="1.51"/><path d="M142,3L129,114L242,91Z" fill="#1bb8e4" stroke="#1bb8e4" stroke-width="1.51"/><path d="M72,419L63,532L141,491Z" fill="#3cbce5" stroke="#3cbce5" stroke-width="1.51"/><path d="M503,-121L286,-91L414,-78Z" fill="#1bb9e4" stroke="#1bb9e4" stroke-width="1.51"/><path d="M255,-12L142,3L242,91Z" fill="#1bb8e4" stroke="#1bb8e4" stroke-width="1.51"/><path d="M27,227L61,289L190,197Z" fill="#18afe5" stroke="#18afe5" stroke-width="1.51"/><path d="M72,419L-6,512L63,532Z" fill="#3dbee5" stroke="#3dbee5" stroke-width="1.51"/><path d="M1309,768L1293,730L1164,753Z" fill="#a0ddf0" stroke="#a0ddf0" stroke-width="1.51"/><path d="M63,532L69,604L141,491Z" fill="#42c0e5" stroke="#42c0e5" stroke-width="1.51"/><path d="M320,1011L267,915L219,1049Z" fill="#9bd2f0" stroke="#9bd2f0" stroke-width="1.51"/><path d="M181,907L274,816L171,754Z" fill="#7acbeb" stroke="#7acbeb" stroke-width="1.51"/><path d="M1293,730L1339,634L1309,635Z" fill="#97daee" stroke="#97daee" stroke-width="1.51"/><path d="M1309,635L1339,634L1268,495Z" fill="#90d5ee" stroke="#90d5ee" stroke-width="1.51"/><path d="M1150,-16L1221,-71L1075,-105Z" fill="#66d1e8" stroke="#66d1e8" stroke-width="1.51"/><path d="M1296,186L1271,50L1186,97Z" fill="#75c9eb" stroke="#75c9eb" stroke-width="1.51"/><path d="M1364,134L1271,50L1296,186Z" fill="#7ecbec" stroke="#7ecbec" stroke-width="1.51"/><path d="M1351,329L1358,236L1239,297Z" fill="#7fc4ec" stroke="#7fc4ec" stroke-width="1.51"/><path d="M1383,357L1358,236L1351,329Z" fill="#87c7ee" stroke="#87c7ee" stroke-width="1.51"/><path d="M1420,526L1292,402L1268,495Z" fill="#8ccfee" stroke="#8ccfee" stroke-width="1.51"/><path d="M952,1003L1078,997L980,935Z" fill="#ade1f2" stroke="#ade1f2" stroke-width="1.51"/><path d="M1182,858L1309,768L1164,753Z" fill="#a3def0" stroke="#a3def0" stroke-width="1.51"/><path d="M1058,1087L1078,997L952,1003Z" fill="#b7e5f3" stroke="#b7e5f3" stroke-width="1.51"/><path d="M1078,997L1130,961L1077,896Z" fill="#b1e3f2" stroke="#b1e3f2" stroke-width="1.51"/><path d="M1228,913L1309,768L1182,858Z" fill="#b0e2f2" stroke="#b0e2f2" stroke-width="1.51"/><path d="M1293,730L1339,743L1339,634Z" fill="#9fddf0" stroke="#9fddf0" stroke-width="1.51"/><path d="M129,114L27,227L190,197Z" fill="#19b2e5" stroke="#19b2e5" stroke-width="1.51"/><path d="M181,-114L142,3L255,-12Z" fill="#1cbee4" stroke="#1cbee4" stroke-width="1.51"/><path d="M61,289L-5,374L72,419Z" fill="#2db7e5" stroke="#2db7e5" stroke-width="1.51"/><path d="M63,532L-6,512L69,604Z" fill="#43c2e5" stroke="#43c2e5" stroke-width="1.51"/><path d="M67,73L27,227L129,114Z" fill="#1bb7e4" stroke="#1bb7e4" stroke-width="1.51"/><path d="M1272,-37L1221,-71L1150,-16Z" fill="#70d3e9" stroke="#70d3e9" stroke-width="1.51"/><path d="M1272,-37L1150,-16L1271,50Z" fill="#73d0ea" stroke="#73d0ea" stroke-width="1.51"/><path d="M267,915L320,1011L345,911Z" fill="#92cdef" stroke="#92cdef" stroke-width="1.51"/><path d="M467,1131L611,1123L611,1054Z" fill="#abd4f3" stroke="#abd4f3" stroke-width="1.51"/><path d="M181,907L171,754L66,846Z" fill="#7dceec" stroke="#7dceec" stroke-width="1.51"/><path d="M1309,768L1339,743L1293,730Z" fill="#a6dff0" stroke="#a6dff0" stroke-width="1.51"/><path d="M1339,634L1420,526L1268,495Z" fill="#92d5ee" stroke="#92d5ee" stroke-width="1.51"/><path d="M1388,774L1339,743L1309,768Z" fill="#ade2f1" stroke="#ade2f1" stroke-width="1.51"/><path d="M-78,293L-5,374L61,289Z" fill="#27b7e5" stroke="#27b7e5" stroke-width="1.51"/><path d="M723,1062L854,1113L770,975Z" fill="#b2dcf3" stroke="#b2dcf3" stroke-width="1.51"/><path d="M611,1123L854,1113L723,1062Z" fill="#b1dbf3" stroke="#b1dbf3" stroke-width="1.51"/><path d="M611,1123L700,1057L611,1054Z" fill="#aed7f3" stroke="#aed7f3" stroke-width="1.51"/><path d="M1466,211L1364,134L1358,236Z" fill="#89c9ee" stroke="#89c9ee" stroke-width="1.51"/><path d="M1358,236L1364,134L1296,186Z" fill="#81c7ed" stroke="#81c7ed" stroke-width="1.51"/><path d="M467,1131L611,1054L428,990Z" fill="#a9d2f2" stroke="#a9d2f2" stroke-width="1.51"/><path d="M66,846L171,754L165,749Z" fill="#70cbea" stroke="#70cbea" stroke-width="1.51"/><path d="M-5,374L-6,512L72,419Z" fill="#37bde5" stroke="#37bde5" stroke-width="1.51"/><path d="M36,678L165,749L69,604Z" fill="#54c7e7" stroke="#54c7e7" stroke-width="1.51"/><path d="M1230,1018L1228,913L1130,961Z" fill="#bfe8f5" stroke="#bfe8f5" stroke-width="1.51"/><path d="M1130,961L1228,913L1182,858Z" fill="#b4e4f3" stroke="#b4e4f3" stroke-width="1.51"/><path d="M-76,573L36,678L69,604Z" fill="#49c8e5" stroke="#49c8e5" stroke-width="1.51"/><path d="M1505,559L1420,526L1339,634Z" fill="#9ed9f0" stroke="#9ed9f0" stroke-width="1.51"/><path d="M1383,357L1466,211L1358,236Z" fill="#8ac6ee" stroke="#8ac6ee" stroke-width="1.51"/><path d="M1372,-18L1272,-37L1271,50Z" fill="#7ed3eb" stroke="#7ed3eb" stroke-width="1.51"/><path d="M142,3L67,73L129,114Z" fill="#1bbae4" stroke="#1bbae4" stroke-width="1.51"/><path d="M1420,526L1446,456L1292,402Z" fill="#93d1ef" stroke="#93d1ef" stroke-width="1.51"/><path d="M286,-91L181,-114L255,-12Z" fill="#1bbee4" stroke="#1bbee4" stroke-width="1.51"/><path d="M142,3L35,24L67,73Z" fill="#1cbee4" stroke="#1cbee4" stroke-width="1.51"/><path d="M503,-121L181,-114L286,-91Z" fill="#1bbde4" stroke="#1bbde4" stroke-width="1.51"/><path d="M555,-128L181,-114L503,-121Z" fill="#1bb9e4" stroke="#1bb9e4" stroke-width="1.51"/><path d="M65,-123L181,-114L555,-128Z" fill="#1bc0e3" stroke="#1bc0e3" stroke-width="1.51"/><path d="M-172,445L-76,573L-6,512Z" fill="#3fc6e5" stroke="#3fc6e5" stroke-width="1.51"/><path d="M27,227L-78,293L61,289Z" fill="#1eb4e4" stroke="#1eb4e4" stroke-width="1.51"/><path d="M-30,142L-12,211L27,227Z" fill="#1ab7e4" stroke="#1ab7e4" stroke-width="1.51"/><path d="M1372,-18L1284,-66L1272,-37Z" fill="#7fd7eb" stroke="#7fd7eb" stroke-width="1.51"/><path d="M1272,-37L1284,-66L1221,-71Z" fill="#77d6ea" stroke="#77d6ea" stroke-width="1.51"/><path d="M1221,-71L1571,-143L1075,-105Z" fill="#7ddaea" stroke="#7ddaea" stroke-width="1.51"/><path d="M393,1154L467,1131L428,990Z" fill="#a6cff3" stroke="#a6cff3" stroke-width="1.51"/><path d="M611,1123L1014,1155L854,1113Z" fill="#b4def3" stroke="#b4def3" stroke-width="1.51"/><path d="M393,1154L428,990L320,1011Z" fill="#a6d0f3" stroke="#a6d0f3" stroke-width="1.51"/><path d="M1189,1090L1230,1018L1130,961Z" fill="#c9ebf6" stroke="#c9ebf6" stroke-width="1.51"/><path d="M1014,1155L1058,1087L952,1003Z" fill="#bbe6f4" stroke="#bbe6f4" stroke-width="1.51"/><path d="M1339,743L1388,774L1339,634Z" fill="#a6dff1" stroke="#a6dff1" stroke-width="1.51"/><path d="M1420,526L1505,559L1446,456Z" fill="#9fd7f0" stroke="#9fd7f0" stroke-width="1.51"/><path d="M1431,862L1388,774L1309,768Z" fill="#b8e5f4" stroke="#b8e5f4" stroke-width="1.51"/><path d="M1431,862L1309,768L1394,931Z" fill="#c2e8f5" stroke="#c2e8f5" stroke-width="1.51"/><path d="M181,907L177,986L267,915Z" fill="#91d1ee" stroke="#91d1ee" stroke-width="1.51"/><path d="M-4,734L66,846L165,749Z" fill="#6fceea" stroke="#6fceea" stroke-width="1.51"/><path d="M-4,734L165,749L36,678Z" fill="#61cbe8" stroke="#61cbe8" stroke-width="1.51"/><path d="M67,73L-30,142L27,227Z" fill="#1bb9e4" stroke="#1bb9e4" stroke-width="1.51"/><path d="M65,-123L35,24L142,3Z" fill="#1cc3e4" stroke="#1cc3e4" stroke-width="1.51"/><path d="M20,904L177,986L181,907Z" fill="#91d5ee" stroke="#91d5ee" stroke-width="1.51"/><path d="M-76,573L69,604L-6,512Z" fill="#45c5e5" stroke="#45c5e5" stroke-width="1.51"/><path d="M-113,695L-4,734L36,678Z" fill="#5ccee7" stroke="#5ccee7" stroke-width="1.51"/><path d="M1515,290L1466,211L1383,357Z" fill="#92caef" stroke="#92caef" stroke-width="1.51"/><path d="M1364,134L1372,-18L1271,50Z" fill="#82d1ec" stroke="#82d1ec" stroke-width="1.51"/><path d="M-29,29L-30,142L67,73Z" fill="#1bbee4" stroke="#1bbee4" stroke-width="1.51"/><path d="M-12,211L-78,293L27,227Z" fill="#1ab4e4" stroke="#1ab4e4" stroke-width="1.51"/><path d="M1453,51L1372,-18L1364,134Z" fill="#8bd3ed" stroke="#8bd3ed" stroke-width="1.51"/><path d="M-124,263L-78,293L-12,211Z" fill="#1cb7e4" stroke="#1cb7e4" stroke-width="1.51"/><path d="M1189,1090L1130,961L1078,997Z" fill="#c1e8f5" stroke="#c1e8f5" stroke-width="1.51"/><path d="M-172,445L-6,512L-5,374Z" fill="#39c1e5" stroke="#39c1e5" stroke-width="1.51"/><path d="M177,986L219,1049L267,915Z" fill="#9bd4f0" stroke="#9bd4f0" stroke-width="1.51"/><path d="M169,1153L219,1049L177,986Z" fill="#a8daf2" stroke="#a8daf2" stroke-width="1.51"/><path d="M1058,1087L1189,1090L1078,997Z" fill="#c5eaf5" stroke="#c5eaf5" stroke-width="1.51"/><path d="M854,1113L1014,1155L952,1003Z" fill="#b8e3f4" stroke="#b8e3f4" stroke-width="1.51"/><path d="M393,1154L1014,1155L611,1123Z" fill="#afd8f3" stroke="#afd8f3" stroke-width="1.51"/><path d="M467,1131L393,1154L611,1123Z" fill="#a9d1f2" stroke="#a9d1f2" stroke-width="1.51"/><path d="M291,1119L393,1154L320,1011Z" fill="#a7d3f2" stroke="#a7d3f2" stroke-width="1.51"/><path d="M1446,456L1518,437L1383,357Z" fill="#99d1ef" stroke="#99d1ef" stroke-width="1.51"/><path d="M1513,680L1505,559L1339,634Z" fill="#a5ddf0" stroke="#a5ddf0" stroke-width="1.51"/><path d="M1505,559L1518,437L1446,456Z" fill="#a2d7f1" stroke="#a2d7f1" stroke-width="1.51"/><path d="M1466,211L1453,51L1364,134Z" fill="#8ecfee" stroke="#8ecfee" stroke-width="1.51"/><path d="M1531,314L1515,290L1383,357Z" fill="#97cdf0" stroke="#97cdf0" stroke-width="1.51"/><path d="M219,1049L291,1119L320,1011Z" fill="#a7d5f2" stroke="#a7d5f2" stroke-width="1.51"/><path d="M1014,1155L1189,1090L1058,1087Z" fill="#c3e9f5" stroke="#c3e9f5" stroke-width="1.51"/><path d="M1520,769L1513,680L1388,774Z" fill="#b9e5f3" stroke="#b9e5f3" stroke-width="1.51"/><path d="M1513,3L1453,51L1557,14Z" fill="#9adaf0" stroke="#9adaf0" stroke-width="1.51"/><path d="M1557,14L1453,51L1602,103Z" fill="#9dd9f0" stroke="#9dd9f0" stroke-width="1.51"/><path d="M1518,437L1531,314L1383,357Z" fill="#9acff0" stroke="#9acff0" stroke-width="1.51"/><path d="M-30,142L-124,263L-12,211Z" fill="#1bb9e4" stroke="#1bb9e4" stroke-width="1.51"/><path d="M35,24L-29,29L67,73Z" fill="#1bc0e4" stroke="#1bc0e4" stroke-width="1.51"/><path d="M-37,-111L-29,29L35,24Z" fill="#1bc6e3" stroke="#1bc6e3" stroke-width="1.51"/><path d="M66,846L20,904L181,907Z" fill="#88d4ed" stroke="#88d4ed" stroke-width="1.51"/><path d="M219,1049L169,1153L291,1119Z" fill="#a8d8f2" stroke="#a8d8f2" stroke-width="1.51"/><path d="M-4,734L-10,837L66,846Z" fill="#76d3ea" stroke="#76d3ea" stroke-width="1.51"/><path d="M-88,804L-10,837L-4,734Z" fill="#74d4e9" stroke="#74d4e9" stroke-width="1.51"/><path d="M-76,573L-106,603L36,678Z" fill="#49cae5" stroke="#49cae5" stroke-width="1.51"/><path d="M-187,539L-106,603L-76,573Z" fill="#46cbe5" stroke="#46cbe5" stroke-width="1.51"/><path d="M752,-136L65,-123L555,-128Z" fill="#20bbe4" stroke="#20bbe4" stroke-width="1.51"/><path d="M181,-114L65,-123L142,3Z" fill="#1cc3e4" stroke="#1cc3e4" stroke-width="1.51"/><path d="M-10,837L20,904L66,846Z" fill="#83d6ec" stroke="#83d6ec" stroke-width="1.51"/><path d="M-78,293L-172,445L-5,374Z" fill="#30bde5" stroke="#30bde5" stroke-width="1.51"/><path d="M-175,153L-124,263L-30,142Z" fill="#1bbde4" stroke="#1bbde4" stroke-width="1.51"/><path d="M1518,437L1560,352L1531,314Z" fill="#a1d2f1" stroke="#a1d2f1" stroke-width="1.51"/><path d="M1699,519L1560,352L1518,437Z" fill="#abd8f3" stroke="#abd8f3" stroke-width="1.51"/><path d="M1388,774L1513,680L1339,634Z" fill="#aae0f1" stroke="#aae0f1" stroke-width="1.51"/><path d="M1309,768L1228,913L1394,931Z" fill="#bde7f4" stroke="#bde7f4" stroke-width="1.51"/><path d="M1394,931L1228,913L1230,1018Z" fill="#c8ebf6" stroke="#c8ebf6" stroke-width="1.51"/><path d="M1623,226L1466,211L1515,290Z" fill="#9bcbf1" stroke="#9bcbf1" stroke-width="1.51"/><path d="M1554,546L1518,437L1505,559Z" fill="#a8daf1" stroke="#a8daf1" stroke-width="1.51"/><path d="M1599,620L1554,546L1505,559Z" fill="#aedef2" stroke="#aedef2" stroke-width="1.51"/><path d="M1453,51L1408,-80L1372,-18Z" fill="#8dd9ed" stroke="#8dd9ed" stroke-width="1.51"/><path d="M1372,-18L1408,-80L1284,-66Z" fill="#86daec" stroke="#86daec" stroke-width="1.51"/><path d="M1284,-66L1408,-80L1221,-71Z" fill="#7ed8eb" stroke="#7ed8eb" stroke-width="1.51"/><path d="M1075,-105L1571,-143L859,-134Z" fill="#69d7e8" stroke="#69d7e8" stroke-width="1.51"/><path d="M1513,3L1408,-80L1453,51Z" fill="#94daee" stroke="#94daee" stroke-width="1.51"/><path d="M1401,1025L1394,931L1230,1018Z" fill="#d5eff8" stroke="#d5eff8" stroke-width="1.51"/><path d="M-10,837L-62,943L20,904Z" fill="#8adaed" stroke="#8adaed" stroke-width="1.51"/><path d="M-106,603L-113,695L36,678Z" fill="#4fcde5" stroke="#4fcde5" stroke-width="1.51"/><path d="M-187,539L-113,695L-106,603Z" fill="#49cee5" stroke="#49cee5" stroke-width="1.51"/><path d="M-29,29L-89,71L-30,142Z" fill="#1cc1e4" stroke="#1cc1e4" stroke-width="1.51"/><path d="M-139,-37L-89,71L-29,29Z" fill="#1bc6e4" stroke="#1bc6e4" stroke-width="1.51"/><path d="M-124,263L-172,445L-78,293Z" fill="#2abde4" stroke="#2abde4" stroke-width="1.51"/><path d="M-175,153L-172,445L-124,263Z" fill="#23bce4" stroke="#23bce4" stroke-width="1.51"/><path d="M-113,695L-88,804L-4,734Z" fill="#68d3e8" stroke="#68d3e8" stroke-width="1.51"/><path d="M-149,951L-88,804L-113,695Z" fill="#7adae9" stroke="#7adae9" stroke-width="1.51"/><path d="M1588,878L1520,769L1431,862Z" fill="#ceedf7" stroke="#ceedf7" stroke-width="1.51"/><path d="M1431,862L1520,769L1388,774Z" fill="#c0e8f5" stroke="#c0e8f5" stroke-width="1.51"/><path d="M1513,680L1564,668L1505,559Z" fill="#aee1f2" stroke="#aee1f2" stroke-width="1.51"/><path d="M1520,769L1564,668L1513,680Z" fill="#b9e6f3" stroke="#b9e6f3" stroke-width="1.51"/><path d="M1725,371L1647,252L1560,352Z" fill="#aad3f3" stroke="#aad3f3" stroke-width="1.51"/><path d="M-172,445L-187,539L-76,573Z" fill="#41c9e5" stroke="#41c9e5" stroke-width="1.51"/><path d="M1623,226L1515,290L1531,314Z" fill="#9fcdf1" stroke="#9fcdf1" stroke-width="1.51"/><path d="M65,-123L-37,-111L35,24Z" fill="#1bc8e3" stroke="#1bc8e3" stroke-width="1.51"/><path d="M25,1047L177,986L20,904Z" fill="#9bdbf0" stroke="#9bdbf0" stroke-width="1.51"/><path d="M25,1047L169,1153L177,986Z" fill="#a9ddf2" stroke="#a9ddf2" stroke-width="1.51"/><path d="M291,1119L169,1153L393,1154Z" fill="#a7d5f2" stroke="#a7d5f2" stroke-width="1.51"/><path d="M1564,668L1599,620L1505,559Z" fill="#b1e1f2" stroke="#b1e1f2" stroke-width="1.51"/><path d="M1647,252L1623,226L1531,314Z" fill="#a3cef2" stroke="#a3cef2" stroke-width="1.51"/><path d="M1629,680L1599,620L1564,668Z" fill="#b9e6f3" stroke="#b9e6f3" stroke-width="1.51"/><path d="M-139,-37L-175,153L-89,71Z" fill="#1bc6e3" stroke="#1bc6e3" stroke-width="1.51"/><path d="M-89,71L-175,153L-30,142Z" fill="#1cc0e4" stroke="#1cc0e4" stroke-width="1.51"/><path d="M-172,445L-175,153L-187,539Z" fill="#31c2e4" stroke="#31c2e4" stroke-width="1.51"/><path d="M1520,769L1629,680L1564,668Z" fill="#bee7f4" stroke="#bee7f4" stroke-width="1.51"/><path d="M1394,931L1452,1009L1431,862Z" fill="#d5eff8" stroke="#d5eff8" stroke-width="1.51"/><path d="M1346,1086L1401,1025L1230,1018Z" fill="#dcf2f9" stroke="#dcf2f9" stroke-width="1.51"/><path d="M1346,1086L1230,1018L1315,1146Z" fill="#dbf2f9" stroke="#dbf2f9" stroke-width="1.51"/><path d="M1315,1146L1230,1018L1189,1090Z" fill="#d5eff8" stroke="#d5eff8" stroke-width="1.51"/><path d="M-62,943L25,1047L20,904Z" fill="#98deef" stroke="#98deef" stroke-width="1.51"/><path d="M-88,804L-62,943L-10,837Z" fill="#83d9eb" stroke="#83d9eb" stroke-width="1.51"/><path d="M-82,960L-62,943L-149,951Z" fill="#96e1ee" stroke="#96e1ee" stroke-width="1.51"/><path d="M1647,252L1531,314L1560,352Z" fill="#a3d0f2" stroke="#a3d0f2" stroke-width="1.51"/><path d="M1513,3L1525,-91L1408,-80Z" fill="#97dfef" stroke="#97dfef" stroke-width="1.51"/><path d="M1602,103L1453,51L1466,211Z" fill="#99d3ef" stroke="#99d3ef" stroke-width="1.51"/><path d="M-82,960L16,1063L25,1047Z" fill="#a4e2f0" stroke="#a4e2f0" stroke-width="1.51"/><path d="M25,1047L16,1063L169,1153Z" fill="#a9e0f2" stroke="#a9e0f2" stroke-width="1.51"/><path d="M1623,226L1602,103L1466,211Z" fill="#9fd1f1" stroke="#9fd1f1" stroke-width="1.51"/><path d="M1014,1155L1315,1146L1189,1090Z" fill="#cdecf7" stroke="#cdecf7" stroke-width="1.51"/><path d="M1484,1057L1452,1009L1401,1025Z" fill="#e7f6fb" stroke="#e7f6fb" stroke-width="1.51"/><path d="M1401,1025L1452,1009L1394,931Z" fill="#ddf3f9" stroke="#ddf3f9" stroke-width="1.51"/><path d="M1484,1057L1401,1025L1346,1086Z" fill="#e7f6fb" stroke="#e7f6fb" stroke-width="1.51"/><path d="M1623,226L1643,204L1602,103Z" fill="#a6d4f2" stroke="#a6d4f2" stroke-width="1.51"/><path d="M1699,519L1518,437L1554,546Z" fill="#afdcf3" stroke="#afdcf3" stroke-width="1.51"/><path d="M-62,943L-82,960L25,1047Z" fill="#9de0ef" stroke="#9de0ef" stroke-width="1.51"/><path d="M-149,951L-62,943L-88,804Z" fill="#8cdeec" stroke="#8cdeec" stroke-width="1.51"/><path d="M-37,-111L-139,-37L-29,29Z" fill="#1bcae3" stroke="#1bcae3" stroke-width="1.51"/><path d="M1599,620L1699,519L1554,546Z" fill="#b5e0f3" stroke="#b5e0f3" stroke-width="1.51"/><path d="M1626,799L1629,680L1520,769Z" fill="#c8ebf6" stroke="#c8ebf6" stroke-width="1.51"/><path d="M1647,252L1643,204L1623,226Z" fill="#a6d0f3" stroke="#a6d0f3" stroke-width="1.51"/><path d="M1571,-143L1525,-91L1637,-47Z" fill="#a4e5f0" stroke="#a4e5f0" stroke-width="1.51"/><path d="M1557,14L1525,-91L1513,3Z" fill="#9ddfef" stroke="#9ddfef" stroke-width="1.51"/><path d="M1408,-80L1571,-143L1221,-71Z" fill="#8ddeec" stroke="#8ddeec" stroke-width="1.51"/><path d="M1637,-47L1557,14L1602,103Z" fill="#a6def1" stroke="#a6def1" stroke-width="1.51"/><path d="M-37,-111L-151,-78L-139,-37Z" fill="#19cfe3" stroke="#19cfe3" stroke-width="1.51"/><path d="M-139,-37L-151,-78L-175,153Z" fill="#1bcae3" stroke="#1bcae3" stroke-width="1.51"/><path d="M1643,204L1657,126L1602,103Z" fill="#a7d6f2" stroke="#a7d6f2" stroke-width="1.51"/><path d="M1725,371L1657,126L1643,204Z" fill="#a6cff3" stroke="#a6cff3" stroke-width="1.51"/><path d="M1725,371L1643,204L1647,252Z" fill="#a7d0f3" stroke="#a7d0f3" stroke-width="1.51"/><path d="M1543,1002L1588,878L1431,862Z" fill="#dcf2f9" stroke="#dcf2f9" stroke-width="1.51"/><path d="M1543,1002L1431,862L1452,1009Z" fill="#def2f9" stroke="#def2f9" stroke-width="1.51"/><path d="M1588,878L1626,799L1520,769Z" fill="#d2eef7" stroke="#d2eef7" stroke-width="1.51"/><path d="M1719,596L1699,519L1599,620Z" fill="#b8e2f4" stroke="#b8e2f4" stroke-width="1.51"/><path d="M1719,596L1599,620L1629,680Z" fill="#bae5f4" stroke="#bae5f4" stroke-width="1.51"/><path d="M-82,960L-31,1100L16,1063Z" fill="#a8e3f1" stroke="#a8e3f1" stroke-width="1.51"/><path d="M16,1063L-31,1100L169,1153Z" fill="#a9e1f1" stroke="#a9e1f1" stroke-width="1.51"/><path d="M1534,1144L1484,1057L1346,1086Z" fill="#ecf8fc" stroke="#ecf8fc" stroke-width="1.51"/><path d="M-82,960L-114,1076L-31,1100Z" fill="#a9e6f1" stroke="#a9e6f1" stroke-width="1.51"/><path d="M-187,539L-149,951L-113,695Z" fill="#64d6e7" stroke="#64d6e7" stroke-width="1.51"/><path d="M1699,519L1725,371L1560,352Z" fill="#afd8f3" stroke="#afd8f3" stroke-width="1.51"/><path d="M1484,1057L1543,1002L1452,1009Z" fill="#ecf8fc" stroke="#ecf8fc" stroke-width="1.51"/><path d="M1662,924L1707,821L1626,799Z" fill="#ddf2f9" stroke="#ddf2f9" stroke-width="1.51"/><path d="M-149,951L-141,991L-82,960Z" fill="#99e4ee" stroke="#99e4ee" stroke-width="1.51"/><path d="M1699,519L1719,596L1725,371Z" fill="#b3ddf3" stroke="#b3ddf3" stroke-width="1.51"/><path d="M1707,821L1719,596L1629,680Z" fill="#c3e9f5" stroke="#c3e9f5" stroke-width="1.51"/><path d="M1707,821L1629,680L1626,799Z" fill="#cfedf7" stroke="#cfedf7" stroke-width="1.51"/><path d="M1525,-91L1571,-143L1408,-80Z" fill="#9ae3ee" stroke="#9ae3ee" stroke-width="1.51"/><path d="M859,-134L1571,-143L752,-136Z" fill="#55d3e5" stroke="#55d3e5" stroke-width="1.51"/><path d="M1637,-47L1525,-91L1557,14Z" fill="#a3e2f0" stroke="#a3e2f0" stroke-width="1.51"/><path d="M1719,-145L1637,-47L1657,126Z" fill="#a9e2f1" stroke="#a9e2f1" stroke-width="1.51"/><path d="M1657,126L1637,-47L1602,103Z" fill="#a9dcf2" stroke="#a9dcf2" stroke-width="1.51"/><path d="M-141,991L-114,1076L-82,960Z" fill="#a2e6ef" stroke="#a2e6ef" stroke-width="1.51"/><path d="M1662,924L1626,799L1588,878Z" fill="#e0f4fa" stroke="#e0f4fa" stroke-width="1.51"/><path d="M1543,1002L1662,924L1588,878Z" fill="#e8f7fb" stroke="#e8f7fb" stroke-width="1.51"/><path d="M1659,995L1662,924L1543,1002Z" fill="#f1fafd" stroke="#f1fafd" stroke-width="1.51"/><path d="M1484,1057L1534,1144L1543,1002Z" fill="#f4fbfd" stroke="#f4fbfd" stroke-width="1.51"/><path d="M1315,1146L1534,1144L1346,1086Z" fill="#e6f6fb" stroke="#e6f6fb" stroke-width="1.51"/><path d="M1014,1155L1534,1144L1315,1146Z" fill="#daf1f9" stroke="#daf1f9" stroke-width="1.51"/><path d="M1639,1132L1659,995L1543,1002Z" fill="#fcfefe" stroke="#fcfefe" stroke-width="1.51"/><path d="M1662,924L1659,995L1707,821Z" fill="#e8f7fb" stroke="#e8f7fb" stroke-width="1.51"/><path d="M1637,-47L1719,-145L1571,-143Z" fill="#aae9f0" stroke="#aae9f0" stroke-width="1.51"/><path d="M1571,-143L1719,-145L752,-136Z" fill="#85dfeb" stroke="#85dfeb" stroke-width="1.51"/><path d="M1725,371L1719,-145L1657,126Z" fill="#a8d8f2" stroke="#a8d8f2" stroke-width="1.51"/><path d="M1534,1144L1639,1132L1543,1002Z" fill="#f9fcfe" stroke="#f9fcfe" stroke-width="1.51"/><path d="M1659,995L1639,1132L1707,821Z" fill="#f3fbfd" stroke="#f3fbfd" stroke-width="1.51"/></svg>